User Type,Username,Date,Text
,meryon,2013-01-27T15:27Z,"DO COMPUTERS DREAM OF ELECTRONIC SHEEP ? (2013)

Format                                   : MPEG-4
Format profile                           : Base Media / Version 2
Codec ID                                 : mp42
File size                                : 170 MiB
Duration                                 : 5mn 57s
Overall bit rate mode                    : Variable
Overall bit rate                         : 3 990 Kbps
Encoded date                             : UTC 2013-01-09 07:52:53
Tagged date                              : UTC 2013-01-09 07:52:53
©TIM                                     : 00:00:00:00

Video
ID                                       : 1
Format                                   : AVC
Format/Info                              : Advanced Video Codec
Format profile                           : High@L5.1
Format settings, CABAC                   : Yes
Format settings, ReFrames                : 3 frames
Format settings, GOP                     : M=3, N=25
Codec ID                                 : avc1
Codec ID/Info                            : Advanced Video Coding
Duration                                 : 5mn 57s
Bit rate                                 : 3 664 Kbps
Width                                    : 1 280 pixels
Height                                   : 500 pixels
Display aspect ratio                     : 2.560
Frame rate mode                          : Constant
Frame rate                               : 25.000 fps
Standard                                 : PAL
Color space                              : YUV
Chroma subsampling                       : 4:2:0
Bit depth                                : 8 bits
Scan type                                : Progressive
Bits/(Pixel*Frame)                       : 0.229
Stream size                              : 156 MiB (92%)
Language                                 : English
Encoded date                             : UTC 2013-01-09 07:52:53
Tagged date                              : UTC 2013-01-09 07:52:53
Color primaries                          : BT.709-5, BT.1361, IEC 61966-2-4, SMPTE RP177
Transfer characteristics                 : BT.709-5, BT.1361
Matrix coefficients                      : BT.709-5, BT.1361, IEC 61966-2-4 709, SMPTE RP177

Audio
ID                                       : 2
Format                                   : AAC
Format/Info                              : Advanced Audio Codec
Format profile                           : LC
Codec ID                                 : 40
Duration                                 : 5mn 57s
Source duration                          : 5mn 57s
Bit rate mode                            : Variable
Bit rate                                 : 318 Kbps
Maximum bit rate                         : 347 Kbps
Channel(s)                               : 2 channels
Channel positions                        : Front: L R
Sampling rate                            : 44.1 KHz
Compression mode                         : Lossy
Stream size                              : 13.5 MiB (8%)
Source stream size                       : 13.5 MiB (8%)
Language                                 : English
Encoded date                             : UTC 2013-01-09 07:52:53
Tagged date                              : UTC 2013-01-09 07:52:53"
